<svg width="160" height="280" viewBox="0 0 160 280" fill="none" xmlns="http://www.w3.org/2000/svg">
<g clip-path="url(#clip0_4489_6744)">
<path d="M32.2362 29.944L27.441 8.65711L25.877 1.72249C25.7472 1.15041 25.3956 0.653335 24.8995 0.340588C24.4034 0.0278413 23.8034 -0.0749592 23.2315 0.0548045L20.8693 0.58924L1.92677 4.86465C1.64398 4.92839 1.37651 5.04725 1.13966 5.21444C0.902805 5.38163 0.701206 5.59387 0.546388 5.83904C0.39157 6.0842 0.28657 6.35748 0.237377 6.64327C0.188184 6.92905 0.195768 7.22172 0.259697 7.50457C-0.75724 16.9761 1.25094 25.7136 5.60843 33.891C5.93026 34.5027 6.27141 35.1144 6.62541 35.7261C6.71909 36.149 6.93643 36.5345 7.24978 36.8336C7.51353 37.0856 7.83542 37.2686 8.18686 37.3664C8.5383 37.4641 8.90842 37.4735 9.26436 37.3937L11.7489 36.8336L13.2808 36.4859L30.5692 32.5839C31.1401 32.4549 31.6365 32.1043 31.9491 31.6092C32.2617 31.1142 32.3649 30.5152 32.2362 29.944Z" fill="#E6E6E6"/>
<path d="M30.2537 28.7596L25.6838 8.5094L24.5896 3.64807C24.469 3.11284 24.141 2.6474 23.6775 2.35402C23.2141 2.06064 22.6531 1.96331 22.118 2.08343L20.6633 2.41182L3.80616 6.21716C3.27114 6.33781 2.80587 6.66599 2.5126 7.12961C2.21932 7.59324 2.12203 8.15436 2.2421 8.6897C2.39012 16.0622 3.16251 22.7521 6.3357 26.8344C6.69686 28.4222 7.47196 29.8861 8.58218 31.077C9.69239 32.2679 11.0981 33.1434 12.6563 33.6145C12.6949 33.6274 12.7271 33.6403 12.7657 33.6531C12.7915 33.6596 12.8237 33.6725 12.8494 33.6789C14.3161 34.0917 15.8626 34.1316 17.3486 33.7948L28.6897 31.2321C29.2247 31.1115 29.6899 30.7833 29.9832 30.3197C30.2765 29.8561 30.3738 29.295 30.2537 28.7596Z" fill="white"/>
<path d="M13.4593 12.9692C13.8323 12.5386 14.3346 12.2404 14.891 12.119C15.4475 11.9976 16.0282 12.0596 16.5465 12.2958C17.6714 12.8578 18.1079 14.0537 17.9282 15.2428C17.7274 16.5711 17.0338 17.7804 16.9708 19.1405C16.9157 20.3307 17.3592 21.5814 18.4136 22.2222C19.1696 22.6817 19.9478 21.5442 19.1881 21.0825C17.938 20.3227 18.3581 18.6531 18.7207 17.5142C19.1735 16.0922 19.6453 14.6425 19.0852 13.1773C18.8372 12.5638 18.4395 12.0223 17.9283 11.6023C17.4171 11.1823 16.8088 10.8973 16.159 10.7733C15.5093 10.6492 14.8388 10.6902 14.2089 10.8923C13.5791 11.0945 13.0099 11.4514 12.5536 11.9304C11.9571 12.5739 12.8553 13.6208 13.4593 12.9692Z" fill="#6C63FF"/>
<path d="M19.5276 26.1939C20.2885 26.1939 20.9053 25.5769 20.9053 24.8157C20.9053 24.0545 20.2885 23.4375 19.5276 23.4375C18.7667 23.4375 18.1499 24.0545 18.1499 24.8157C18.1499 25.5769 18.7667 26.1939 19.5276 26.1939Z" fill="#6C63FF"/>
<path d="M106.237 266.4L84.4264 266.27L77.3207 266.229C76.0997 266.222 75.0986 266.687 75.0851 267.266L75.0565 268.415L74.8171 277.629C74.7989 278.204 75.7761 278.682 76.9971 278.689C85.8939 280.144 94.9557 280.291 103.895 279.125C104.564 279.044 105.238 278.955 105.915 278.858C106.329 278.864 106.74 278.808 107.137 278.691C107.74 278.505 108.139 278.186 108.149 277.823L108.181 276.615L108.199 275.87L108.417 267.46C108.431 266.881 107.452 266.406 106.237 266.4Z" fill="#E6E6E6"/>
<path d="M104.625 267.186L83.8746 267.065L78.8938 267.035C77.7524 267.028 76.8131 267.462 76.7988 268.004L76.7805 268.711L76.568 276.911C76.5538 277.452 77.4678 277.898 78.6092 277.905C85.812 278.648 92.4962 279.028 97.202 278.013C100.628 278.03 103.649 277.154 105.262 275.842C105.283 275.826 105.303 275.812 105.324 275.796C105.337 275.785 105.357 275.771 105.369 275.76C105.697 275.518 105.97 275.209 106.17 274.853C106.369 274.497 106.491 274.103 106.526 273.696L106.666 268.18C106.681 267.638 105.767 267.192 104.625 267.186Z" fill="white"/>
<path d="M85.3736 273.199C84.7376 272.747 84.671 272.132 85.4354 271.7C86.243 271.242 87.5071 271.172 88.6216 271.386C89.8666 271.625 90.8814 272.078 92.1892 272.257C93.3337 272.414 94.6527 272.347 95.5205 271.931C96.1428 271.632 95.2174 271.148 94.5921 271.448C93.5632 271.941 92.0373 271.563 91.0141 271.271C89.7365 270.905 88.4364 270.528 86.8817 270.625C84.0531 270.802 82.5774 272.383 84.1534 273.502C84.6406 273.848 85.867 273.549 85.3736 273.199Z" fill="#E6E6E6"/>
<path d="M98.301 272.356C99.0619 272.356 99.6787 272.064 99.6787 271.703C99.6787 271.342 99.0619 271.049 98.301 271.049C97.5402 271.049 96.9233 271.342 96.9233 271.703C96.9233 272.064 97.5402 272.356 98.301 272.356Z" fill="#E6E6E6"/>
<path d="M1.23547 106.661C-0.659636 98.6983 -0.34359 90.8558 2.90152 83.1722C2.93578 82.6969 3.15712 82.2545 3.51701 81.9422C3.87689 81.6299 4.34592 81.4731 4.82119 81.5063L22.5536 82.765C23.0288 82.7993 23.471 83.0207 23.7832 83.3807C24.0954 83.7408 24.2521 84.21 24.2189 84.6854L22.5529 108.174C22.5186 108.649 22.2973 109.092 21.9374 109.404C21.5775 109.716 21.1085 109.873 20.6332 109.84L2.90077 108.581C2.42558 108.547 1.98337 108.325 1.67117 107.965C1.35898 107.605 1.20229 107.136 1.23547 106.661Z" fill="#F2F2F2"/>
<path d="M3.09885 99.6628C1.58222 95.7391 2.55193 90.3427 4.16993 84.5623C4.20201 84.1171 4.4093 83.7028 4.74635 83.4103C5.08339 83.1178 5.52265 82.971 5.96776 83.0021L21.2073 84.0839C21.6523 84.116 22.0665 84.3233 22.3589 84.6605C22.6513 84.9977 22.7981 85.4371 22.767 85.8824L21.2844 106.784C21.2523 107.229 21.045 107.643 20.708 107.936C20.3709 108.228 19.9316 108.375 19.4865 108.344L10.0459 107.674C8.0636 107.531 6.21888 106.607 4.9165 105.105C3.61412 103.604 2.96043 101.646 3.09885 99.6628Z" fill="white"/>
<path d="M13.6497 100.687C13.1842 100.607 12.7187 100.527 12.2532 100.447C12.4676 99.9404 12.5914 99.4002 12.6189 98.851C12.8392 95.9113 12.8614 92.9435 12.9789 89.9978C12.9759 89.89 12.9417 89.7855 12.8806 89.6968C12.8195 89.608 12.734 89.5388 12.6345 89.4976C12.5349 89.4564 12.4256 89.4448 12.3196 89.4643C12.2137 89.4838 12.1156 89.5336 12.0373 89.6076C10.8683 90.5763 9.69922 91.5449 8.53015 92.5136C7.98294 92.967 8.76711 93.7439 9.31019 93.2939C10.1493 92.5986 10.9884 91.9034 11.8275 91.2081C11.7505 93.1382 11.6734 95.0684 11.5964 96.9986C11.5595 97.9249 11.672 99.0498 11.2929 99.9207C11.2411 100.038 11.1734 100.148 11.0918 100.247C10.5764 100.159 10.0611 100.07 9.54569 99.9813C9.17504 99.9176 8.70406 100.227 8.86718 100.66C9.22192 101.601 10.2676 101.899 11.1643 101.536C11.2433 101.501 11.3198 101.46 11.3931 101.413L13.3564 101.751C14.0508 101.87 14.349 100.807 13.6497 100.687Z" fill="#F2F2F2"/>
<path d="M65.5851 108.868C63.69 100.905 64.006 93.0629 67.2511 85.3793C67.2854 84.9039 67.5067 84.4615 67.8666 84.1492C68.2265 83.8369 68.6955 83.6802 69.1708 83.7134L86.9032 84.9721C87.3784 85.0063 87.8206 85.2278 88.1328 85.5878C88.445 85.9478 88.6017 86.417 88.5685 86.8924L86.9025 110.381C86.8682 110.856 86.6469 111.299 86.287 111.611C85.9271 111.923 85.4581 112.08 84.9828 112.047L67.2504 110.788C66.7752 110.754 66.333 110.532 66.0208 110.172C65.7086 109.812 65.5519 109.343 65.5851 108.868Z" fill="#F2F2F2"/>
<path d="M67.4485 101.87C65.9318 97.9462 66.9015 92.5498 68.5195 86.7694C68.5516 86.3242 68.7589 85.9099 69.096 85.6174C69.433 85.3249 69.8723 85.1781 70.3174 85.2092L85.5569 86.2909C86.0019 86.323 86.4161 86.5304 86.7085 86.8675C87.0009 87.2047 87.1477 87.6441 87.1166 88.0894L85.634 108.991C85.6019 109.436 85.3946 109.85 85.0576 110.143C84.7205 110.435 84.2812 110.582 83.8361 110.551L74.3956 109.881C72.4132 109.738 70.5685 108.814 69.2661 107.312C67.9637 105.811 67.31 103.853 67.4485 101.87Z" fill="white"/>
<path d="M77.397 97.8841C77.5995 97.7894 77.7912 97.6731 77.9688 97.5372C78.4413 97.1474 78.7906 96.6288 78.9743 96.0443C79.158 95.4598 79.1683 94.8346 79.0038 94.2444C78.2888 91.6165 75.1465 91.6004 72.9771 91.9166C72.2772 92.0187 72.5748 93.0822 73.2703 92.9808C74.7324 92.7677 77.0276 92.5954 77.8133 94.1929C77.9926 94.5681 78.0564 94.9882 77.9966 95.3998C77.9368 95.8114 77.7561 96.196 77.4774 96.5047C77.1442 96.8391 76.7055 97.0477 76.2359 97.0951C75.781 96.8972 75.2871 96.8051 74.7915 96.8256C74.2803 96.8497 73.9955 97.5934 74.5131 97.8538C74.9711 98.0821 75.4758 98.2011 75.9875 98.2016C76.4118 98.4064 76.7662 98.732 77.0061 99.1377C77.246 99.5433 77.3607 100.011 77.3358 100.481C77.2869 100.804 77.1749 101.113 77.0061 101.392C76.8373 101.671 76.6151 101.913 76.3523 102.106C76.0895 102.298 75.7912 102.437 75.4746 102.514C75.158 102.591 74.8293 102.604 74.5075 102.554C73.8143 102.414 73.5177 103.477 74.2142 103.618C74.6896 103.707 75.1783 103.7 75.6507 103.595C76.1232 103.491 76.5696 103.292 76.9632 103.011C77.3567 102.729 77.6893 102.371 77.9408 101.957C78.1922 101.544 78.3575 101.084 78.4265 100.605C78.4703 100.103 78.4004 99.5979 78.2222 99.1269C78.044 98.6559 77.7619 98.2311 77.397 97.8841Z" fill="#F2F2F2"/>
<path d="M100.056 259.496L93.8174 259.495L90.8496 235.422L100.057 235.423L100.056 259.496Z" fill="#FFB6B6"/>
<path d="M100.276 266.006L81.0903 266.005V265.763C81.0905 263.781 81.8773 261.881 83.2777 260.48C84.6781 259.08 86.5774 258.293 88.5578 258.292H88.5583L92.0627 255.633L98.6013 258.293L100.276 258.293L100.276 266.006Z" fill="#2F2E41"/>
<path d="M128.738 272.738L122.499 272.737L119.531 248.664L128.739 248.665L128.738 272.738Z" fill="#FFB6B6"/>
<path d="M128.957 279.25L109.772 279.249V279.007C109.772 277.025 110.559 275.126 111.959 273.725C113.36 272.324 115.259 271.537 117.239 271.537H117.24L120.744 268.877L127.283 271.537L128.958 271.537L128.957 279.25Z" fill="#2F2E41"/>
<path d="M51.9781 80.2213C52.4067 80.7005 52.9342 81.0808 53.5241 81.3359C54.114 81.5911 54.7523 81.715 55.3948 81.6991C56.0373 81.6832 56.6687 81.5279 57.2453 81.2439C57.8219 80.9599 58.3299 80.554 58.7343 80.0543L80.007 86.1118L83.1285 80.6375L57.81 73.6278C56.9185 73.0095 55.8313 72.7398 54.7543 72.8698C53.6773 72.9999 52.6854 73.5206 51.9666 74.3333C51.2477 75.1461 50.8519 76.1943 50.854 77.2795C50.8561 78.3647 51.2561 79.4114 51.9781 80.2213Z" fill="#FFB6B6"/>
<path d="M107.297 130.887L84.9133 182.084L82.3394 190.177L90.1215 246.978L102.683 246.365L102.654 239.081C102.654 239.081 99.6651 237.459 102.645 236.578C105.624 235.698 105.499 233.461 102.62 230.165C99.7409 226.869 102.485 195.327 102.485 195.327C102.485 195.327 114.339 183.971 113.048 181.004C111.756 178.038 114.154 178.038 114.154 178.038C114.154 178.038 116.709 177.581 116.807 176.338C116.904 175.095 118.798 172.596 118.798 172.596L118.135 260.079H128.973C128.973 260.079 133.928 251.842 132.954 250.069C131.98 248.297 130.619 248.123 132.954 246.003C135.29 243.882 138.718 245.617 137.188 241.623C135.658 237.629 136.051 194.526 136.051 194.526C136.051 194.526 142.08 169.514 138.355 167.815C134.63 166.117 136.482 166.357 138.681 164.03C140.881 161.703 137.151 161.915 139.016 160.154C140.881 158.392 140.956 137.659 140.956 137.659L107.297 130.887Z" fill="#2F2E41"/>
<path d="M142.644 145.3C126.954 145.263 113.492 148.791 97.8018 148.754C98.824 141.677 102.396 130.584 103.418 123.505C104.855 113.548 103.741 107.605 105.174 97.6488C105.318 96.6741 105.458 95.7029 105.597 94.7281C106.164 90.7922 104.807 86.8562 107.241 82.6995C108.278 80.9265 110.002 79.1167 112.86 77.248C118.794 77.8513 118.691 75.1734 124.626 75.7767L126.59 79.6906C126.84 81.1767 127.741 82.1441 128.962 82.8761C131.473 84.3953 135.341 84.925 137.665 86.9813C140.585 89.5636 140.39 93.6945 139.522 97.7261C139.213 99.1607 138.82 100.581 138.449 101.916C135.459 112.674 139.28 120.882 142.396 130.861C142.691 131.808 139.893 135.467 140.189 136.379C140.692 137.924 142.492 139.846 142.205 140.891C141.851 142.183 141.497 143.399 142.644 145.3Z" fill="#6C63FF"/>
<path d="M139.522 97.7255L105.174 97.6482L104.071 97.6446L63.3374 82.6729L68.5501 82.8497L70.9696 77.2695L72.1353 74.5879L96.1432 82.6143L107.241 82.6989L128.164 82.8534C128.432 82.8571 128.697 82.8645 128.961 82.8755C131.473 84.3947 135.341 84.9244 137.665 86.9807C140.585 89.563 140.39 93.6939 139.522 97.7255Z" fill="#6C63FF"/>
<path d="M116.056 74.7091C122.22 74.7091 127.218 69.7099 127.218 63.543C127.218 57.3762 122.22 52.377 116.056 52.377C109.891 52.377 104.894 57.3762 104.894 63.543C104.894 69.7099 109.891 74.7091 116.056 74.7091Z" fill="#FFB6B6"/>
<path d="M114.469 73.1406L115.379 76.0489C117.395 75.0533 123.115 73.6718 124.794 72.1756C126.472 70.6794 127.771 68.6147 127.85 66.367C127.891 65.2061 127.61 64.0351 127.803 62.8896C128.021 61.5953 128.819 60.4732 129.185 59.2126C129.527 57.8922 129.398 56.4939 128.821 55.2583C128.244 54.0226 127.254 53.0268 126.022 52.4423C124.172 51.6288 122.056 51.8571 120.045 51.6606C118.033 51.464 115.789 50.5537 115.223 48.6129C115.012 47.8872 115.036 47.0316 114.388 46.5565C114.062 46.3388 113.667 46.2493 113.28 46.3054C112.892 46.3615 112.539 46.5591 112.288 46.8602C112.258 46.8941 112.23 46.9283 112.202 46.9628C110.5 49.0996 107.291 49.2582 105.611 47.1031C105.501 46.9622 105.396 46.8181 105.295 46.6708C104.942 47.0013 104.658 47.3986 104.459 47.8396C104.261 48.2806 104.152 48.7565 104.138 49.24C104.125 49.7234 104.207 50.2047 104.381 50.6561C104.555 51.1074 104.816 51.5199 105.15 51.8696C104.516 51.8699 103.9 51.6563 103.402 51.2634C102.904 50.8705 102.553 50.3211 102.405 49.7041C101.635 50.7684 100.844 51.8783 100.596 53.1688C100.349 54.4592 100.808 55.9855 101.991 56.5565C102.595 56.7952 103.243 56.9013 103.892 56.8678C100.84 60.4788 102.671 60.3749 108.851 56.962C111.917 57.0203 110.706 59.8702 110.746 62.9376C112.189 62.7989 113.675 62.6633 115.039 63.2712C115.675 63.5389 116.21 63.9993 116.571 64.5875C117.472 66.137 116.578 67.7474 115.785 69.1568C115.107 70.3615 114.465 71.8123 115.027 73.075" fill="#2F2E41"/>
<path d="M94.1543 166.749C94.7168 166.438 95.2051 166.008 95.5853 165.49C95.9656 164.971 96.2287 164.377 96.3566 163.746C96.4844 163.116 96.4739 162.466 96.3258 161.84C96.1777 161.215 95.8955 160.629 95.4988 160.123L106.147 140.73L101.509 136.465L89.0303 159.591C88.2289 160.322 87.7236 161.322 87.61 162.401C87.4965 163.481 87.7826 164.564 88.4142 165.446C89.0458 166.329 89.979 166.948 91.0369 167.188C92.0949 167.428 93.2041 167.272 94.1543 166.749Z" fill="#FFB6B6"/>
<path d="M120.125 76.0605L117.643 120.541L105.685 148.493L97.9024 158.819L98.7871 154.14L93.4222 151.455L92.9185 151.204L100.059 133.11L102.214 127.651L103.218 111.219L104.167 95.6815C104.33 93.0076 105.047 90.3968 106.271 88.0142C107.495 85.6316 109.2 83.529 111.278 81.8394L117.235 76.9986L120.125 76.0605Z" fill="#6C63FF"/>
<path d="M36.5358 76.1294C34.6407 68.167 34.9567 60.3246 38.2018 52.641C38.2361 52.1656 38.4574 51.7233 38.8173 51.4109C39.1772 51.0986 39.6462 50.9419 40.1215 50.9751L57.8539 52.2338C58.3291 52.268 58.7713 52.4895 59.0835 52.8495C59.3957 53.2095 59.5524 53.6787 59.5192 54.1541L57.8532 77.6426C57.8189 78.1179 57.5976 78.5603 57.2377 78.8726C56.8778 79.1849 56.4088 79.3417 55.9335 79.3085L38.2011 78.0498C37.7259 78.0155 37.2837 77.7941 36.9715 77.4341C36.6593 77.074 36.5026 76.6048 36.5358 76.1294Z" fill="#F2F2F2"/>
<path d="M38.3991 69.1316C36.8825 65.2079 37.8522 59.8115 39.4702 54.0311C39.5023 53.5859 39.7096 53.1716 40.0466 52.8791C40.3837 52.5866 40.8229 52.4398 41.2681 52.4709L56.5076 53.5526C56.9526 53.5847 57.3668 53.7921 57.6592 54.1293C57.9516 54.4664 58.0983 54.9058 58.0673 55.3511L56.5847 76.2526C56.5526 76.6978 56.3453 77.1121 56.0083 77.4046C55.6712 77.6971 55.2319 77.8439 54.7868 77.8128L45.3462 77.1427C43.3639 76.9997 41.5192 76.076 40.2168 74.5741C38.9144 73.0723 38.2607 71.115 38.3991 69.1316Z" fill="white"/>
<path d="M47.7707 58.612C46.2085 58.0697 44.4714 59.3056 44.2941 60.9079C44.0932 62.7241 46.046 64.1579 47.7367 63.6643C48.4168 63.4657 48.1274 62.4004 47.4434 62.6001C46.2042 62.9619 44.8823 61.6233 45.5948 60.4266C45.7566 60.1377 46.0026 59.905 46.3 59.7595C46.5973 59.6139 46.9319 59.5624 47.2592 59.6119C47.5371 59.6889 47.7931 59.8299 48.0067 60.0238C48.2202 60.2177 48.3854 60.4589 48.4889 60.7281C49.0969 62.0989 48.3743 63.4905 47.4166 64.4868C46.8703 65.055 46.2294 65.4966 45.6407 66.0145C45.3545 66.2308 45.1168 66.5048 44.9428 66.8186C44.7689 67.1325 44.6627 67.4794 44.631 67.8368C44.6465 68.2388 44.7716 68.6289 44.9927 68.9649C45.2139 69.3009 45.5227 69.57 45.8857 69.7431C46.8262 70.227 47.8959 70.0732 48.8964 69.9121C49.5955 69.7996 49.2988 68.736 48.6032 68.848C47.7281 68.9888 46.418 69.2023 45.8635 68.2895C45.3887 67.5078 46.367 66.8215 46.9 66.4057C48.2397 65.3606 49.5945 64.0111 49.7956 62.2343C49.9604 60.7787 49.2209 59.1155 47.7707 58.612Z" fill="#6C63FF"/>
<path d="M139.73 273.625C139.901 273.633 140.07 273.588 140.215 273.496C140.359 273.405 140.472 273.271 140.538 273.113C140.604 272.955 140.62 272.781 140.584 272.613C140.547 272.446 140.46 272.294 140.335 272.178L140.278 271.951C140.285 271.932 140.293 271.914 140.3 271.896C140.472 271.489 140.761 271.142 141.13 270.899C141.498 270.656 141.931 270.527 142.372 270.528C142.814 270.53 143.245 270.662 143.612 270.908C143.979 271.154 144.265 271.503 144.434 271.911C145.11 273.54 145.971 275.172 146.183 276.894C146.276 277.655 146.237 278.427 146.066 279.175C147.654 275.71 148.479 271.944 148.484 268.132C148.484 267.175 148.431 266.22 148.325 265.269C148.237 264.49 148.115 263.716 147.959 262.948C147.108 258.78 145.281 254.873 142.627 251.548C141.343 250.847 140.304 249.769 139.651 248.46C139.415 247.989 139.248 247.486 139.155 246.968C139.3 246.987 139.701 244.779 139.592 244.644C139.794 244.337 140.155 244.185 140.376 243.886C141.472 242.399 142.983 242.658 143.772 244.68C145.457 245.53 145.473 246.941 144.439 248.298C143.782 249.161 143.691 250.329 143.114 251.254C143.174 251.33 143.235 251.403 143.295 251.479C144.38 252.876 145.326 254.375 146.119 255.956C145.926 254.185 146.156 252.393 146.791 250.729C147.433 249.177 148.638 247.871 149.699 246.53C149.98 246.169 150.361 245.9 150.795 245.757C151.228 245.613 151.694 245.601 152.134 245.723C152.574 245.844 152.969 246.093 153.267 246.439C153.566 246.784 153.755 247.211 153.812 247.664C153.814 247.684 153.816 247.703 153.818 247.723C153.661 247.812 153.506 247.906 153.355 248.006C153.166 248.133 153.019 248.314 152.934 248.526C152.849 248.738 152.83 248.97 152.879 249.193C152.929 249.415 153.044 249.618 153.21 249.774C153.377 249.93 153.586 250.032 153.812 250.067L153.835 250.07C153.779 250.639 153.68 251.202 153.538 251.755C154.899 257.021 151.961 258.939 147.764 259.025C147.672 259.073 147.582 259.12 147.489 259.165C148.286 261.424 148.785 263.777 148.976 266.165C149.083 267.573 149.077 268.988 148.957 270.396L148.964 270.346C149.268 268.781 150.103 267.369 151.327 266.348C153.145 264.853 155.715 264.303 157.677 263.102C157.885 262.968 158.128 262.896 158.375 262.896C158.623 262.895 158.866 262.965 159.075 263.098C159.284 263.231 159.451 263.421 159.556 263.646C159.661 263.87 159.699 264.12 159.666 264.366L159.658 264.418C159.366 264.538 159.081 264.675 158.806 264.829C158.648 264.918 158.494 265.013 158.343 265.113C158.153 265.239 158.006 265.42 157.921 265.632C157.836 265.844 157.817 266.076 157.867 266.299C157.916 266.522 158.031 266.724 158.198 266.88C158.364 267.036 158.574 267.138 158.799 267.173L158.822 267.177C158.839 267.179 158.853 267.182 158.87 267.184C158.37 268.378 157.669 269.476 156.797 270.432C155.945 275.029 152.29 275.465 148.38 274.126H148.377C147.948 275.991 147.326 277.807 146.522 279.543H139.896C139.872 279.47 139.851 279.394 139.83 279.32C140.443 279.358 141.059 279.322 141.663 279.211C141.171 278.607 140.68 277.999 140.188 277.395C140.177 277.384 140.167 277.372 140.157 277.36C139.908 277.051 139.656 276.744 139.407 276.436L139.407 276.435C139.393 275.488 139.502 274.544 139.73 273.625Z" fill="#F2F2F2"/>
<path d="M65.6172 279.563C65.617 279.62 65.6282 279.677 65.6502 279.73C65.6721 279.784 65.7043 279.832 65.745 279.873C65.7857 279.913 65.834 279.946 65.8871 279.968C65.9403 279.989 65.9973 280.001 66.0548 280H159.193C159.309 280 159.42 279.954 159.502 279.872C159.584 279.79 159.63 279.679 159.63 279.563C159.63 279.447 159.584 279.335 159.502 279.253C159.42 279.171 159.309 279.125 159.193 279.125H66.0548C65.9973 279.125 65.9403 279.136 65.8871 279.158C65.834 279.18 65.7857 279.212 65.745 279.253C65.7043 279.294 65.6721 279.342 65.6502 279.395C65.6282 279.448 65.617 279.505 65.6172 279.563Z" fill="#CCCCCC"/>
<path d="M18.7297 37.7161C18.2696 44.5189 18.4906 52.2395 23.7693 57.2861C25.0062 58.4795 26.4832 59.3953 28.1019 59.9723C28.7728 60.2088 29.0613 59.1431 28.3952 58.9082C25.6835 57.9519 23.5501 55.8505 22.1287 53.3935C20.4624 50.5133 19.8266 47.1906 19.6874 43.8972C19.6227 41.8357 19.6713 39.7722 19.8329 37.7161C19.8808 37.0072 18.7775 37.0102 18.7297 37.7161Z" fill="#3F3D56"/>
<path d="M26.9527 53.2832C28.2611 53.8913 29.6326 54.51 30.6676 55.5439C31.6118 56.4871 32.2711 57.8628 31.8885 59.2072C31.2609 61.4128 28.4657 62.2444 26.5169 62.7704C26.3803 62.8132 26.2657 62.9074 26.1972 63.0331C26.1287 63.1588 26.1117 63.3062 26.1497 63.4442C26.1878 63.5822 26.2779 63.7 26.4011 63.7728C26.5243 63.8457 26.6709 63.8678 26.8101 63.8345C28.7706 63.3054 30.9688 62.5667 32.2493 60.8878C33.7646 58.9011 33.0453 56.2824 31.3431 54.6619C30.2465 53.6179 28.8671 52.9612 27.5094 52.3303C26.8697 52.033 26.3088 52.9839 26.9527 53.2832Z" fill="#3F3D56"/>
</g>
<defs>
<clipPath id="clip0_4489_6744">
<rect width="159.682" height="280" fill="white"/>
</clipPath>
</defs>
</svg>
