<svg width="331" height="281" viewBox="0 0 331 281" fill="none" xmlns="http://www.w3.org/2000/svg">
<g clip-path="url(#clip0_2411_3573)">
<path d="M171.103 41.6923C171.354 42.4166 171.762 43.0769 172.296 43.6267C172.83 44.1765 173.479 44.6024 174.195 44.8744C174.912 45.1464 175.679 45.2579 176.444 45.2011C177.208 45.1442 177.951 44.9204 178.619 44.5454L224.09 59.137L239.139 47.3251L180.488 37.0511C179.784 35.9692 178.707 35.1834 177.463 34.8425C176.218 34.5016 174.892 34.6292 173.735 35.2013C172.578 35.7734 171.671 36.7502 171.186 37.9465C170.701 39.1428 170.671 40.4756 171.103 41.6923Z" fill="#FFB6B6"/>
<path d="M255.324 61.1922C255.324 61.1922 254.912 60.1815 249.471 62.3807C242.717 65.1106 206.763 63.2856 204.771 53.4782C204.134 54.1351 203.298 54.5616 202.393 54.6905C201.488 54.8194 200.566 54.6434 199.771 54.1902L205.392 41.8484C208.318 40.9127 209.908 40.2204 210.097 41.4124L218.893 40.8948L254.519 46.8944L255.504 59.1971L255.324 61.1922Z" fill="white"/>
<path d="M244.12 48.8184L261.812 47.2861L278.398 54.8714L287.712 183.769L251.161 166.858L235.479 171.198L244.12 48.8184Z" fill="white"/>
<path d="M287.647 273.776L280.936 273.776L277.744 247.88L287.648 247.88L287.647 273.776Z" fill="#FFB6B6"/>
<path d="M289.358 280.284L267.72 280.284V280.01C267.72 277.775 268.607 275.632 270.187 274.052C271.766 272.472 273.908 271.584 276.142 271.584L280.095 268.584L287.47 271.584L289.359 271.584L289.358 280.284Z" fill="#2F2E41"/>
<path d="M261.641 269.546L255.095 271.024L246.279 246.468L255.94 244.286L261.641 269.546Z" fill="#FFB6B6"/>
<path d="M264.744 275.517L243.636 280.284L243.576 280.017C243.084 277.838 243.478 275.552 244.671 273.662C245.863 271.773 247.757 270.435 249.936 269.942L249.937 269.942L253.132 266.145L260.986 267.447L262.828 267.03L264.744 275.517Z" fill="#2F2E41"/>
<path d="M296.147 115.462C299.293 124.956 298.961 135.261 295.391 146.321L293.865 208.592C296.388 211.37 296.773 236.225 292.887 244.335C287.697 255.165 292.47 256.613 288.801 263.798H278.16L273.242 231.247L272.892 204.862C271.479 201.515 272.639 189.734 272.639 189.734L272.23 165.305L253.044 208.099C261.737 215.542 260.954 239.586 261.098 250.25L263.948 262.834L250.851 264.005L245.072 246.94L238.574 236.423C235.263 217.79 234.281 204.11 237.104 198.523L256.364 126.834L296.147 115.462Z" fill="#2F2E41"/>
<path d="M297.51 112.294L295.756 108.784C293.609 95.4749 291.487 83.0614 294.369 71.8955C294.55 62.148 291.539 52.9906 283.177 47.99L279.405 45.733L277.496 40.8877L259.913 41.3174L259.861 47.669L253.564 57.7168V57.7582L253.958 112.433L255.696 118.076L253.073 124.64L254.465 128.828L289.128 123.284L293.159 122.636C293.624 122.487 294.073 122.291 294.499 122.051C295.945 121.248 297.079 119.981 297.717 118.454C297.753 118.366 297.785 118.283 297.816 118.195C298.087 117.482 298.245 116.731 298.281 115.969C298.344 114.698 298.079 113.432 297.51 112.294Z" fill="#3F3D56"/>
<path opacity="0.2" d="M298.281 115.969C298.244 116.731 298.087 117.482 297.815 118.195L294.498 122.052C294.073 122.291 293.624 122.487 293.158 122.636L289.127 123.284L294.959 112.314L282.142 84.2417L298.281 115.969Z" fill="black"/>
<path d="M25.9551 229.389C21.8825 229.43 17.8131 229.148 13.7851 228.546C10.0346 227.911 8.13281 227.01 8.13281 225.867L8.1342 225.846L15.1308 172.553L11.607 162.447C11.4591 162.023 11.4154 161.569 11.4797 161.124C11.544 160.679 11.7144 160.257 11.9764 159.892C12.2384 159.527 12.5844 159.23 12.9852 159.027C13.3859 158.824 13.8296 158.721 14.2788 158.725L37.4519 158.967C37.8929 158.971 38.3265 159.08 38.7175 159.284C39.1084 159.488 39.4456 159.782 39.7016 160.141C39.9576 160.5 40.1251 160.915 40.1904 161.351C40.2558 161.788 40.2171 162.233 40.0777 162.652L36.7792 172.552L43.776 225.846C43.7774 228.647 32.5746 229.389 25.9551 229.389Z" fill="#F2F2F2"/>
<path d="M24.0664 221.887H12.7471V222.524H24.0664V221.887Z" fill="#CCCCCC"/>
<path d="M24.0664 218.066H12.7471V218.703H24.0664V218.066Z" fill="#CCCCCC"/>
<path d="M24.0664 214.246H12.7471V214.882H24.0664V214.246Z" fill="#CCCCCC"/>
<path d="M24.0664 210.425H12.7471V211.062H24.0664V210.425Z" fill="#CCCCCC"/>
<path d="M24.0664 206.604H12.7471V207.241H24.0664V206.604Z" fill="#CCCCCC"/>
<path d="M127.796 229.389C123.724 229.43 119.654 229.148 115.626 228.546C111.876 227.911 109.974 227.01 109.974 225.867L109.976 225.846L116.972 172.553L113.448 162.447C113.3 162.023 113.257 161.569 113.321 161.124C113.385 160.679 113.556 160.257 113.818 159.892C114.08 159.527 114.426 159.23 114.826 159.027C115.227 158.824 115.671 158.721 116.12 158.725L139.293 158.967C139.734 158.971 140.168 159.08 140.559 159.284C140.95 159.488 141.287 159.782 141.543 160.141C141.799 160.5 141.966 160.915 142.032 161.351C142.097 161.788 142.058 162.233 141.919 162.652L138.621 172.552L145.617 225.846C145.619 228.647 134.416 229.389 127.796 229.389Z" fill="#F2F2F2"/>
<path d="M125.908 221.887H114.589V222.524H125.908V221.887Z" fill="#CCCCCC"/>
<path d="M125.908 218.066H114.589V218.703H125.908V218.066Z" fill="#CCCCCC"/>
<path d="M125.908 214.246H114.589V214.882H125.908V214.246Z" fill="#CCCCCC"/>
<path d="M125.908 210.425H114.589V211.062H125.908V210.425Z" fill="#CCCCCC"/>
<path d="M125.908 206.604H114.589V207.241H125.908V206.604Z" fill="#CCCCCC"/>
<path d="M80.0581 229.389C75.9856 229.43 71.9161 229.148 67.8881 228.546C64.1376 227.911 62.2358 227.01 62.2358 225.867L62.2372 225.846L69.2339 172.553L65.7101 162.447C65.5621 162.023 65.5185 161.569 65.5828 161.124C65.647 160.679 65.8174 160.257 66.0794 159.892C66.3415 159.527 66.6875 159.23 67.0882 159.027C67.489 158.824 67.9327 158.721 68.3818 158.725L91.555 158.967C91.9959 158.971 92.4296 159.08 92.8205 159.284C93.2115 159.488 93.5487 159.782 93.8046 160.141C94.0606 160.5 94.2281 160.915 94.2935 161.351C94.3588 161.788 94.3202 162.233 94.1807 162.652L90.8822 172.552L97.879 225.846C97.8804 228.647 86.6776 229.389 80.0581 229.389Z" fill="#F2F2F2"/>
<path d="M78.1699 221.887H66.8506V222.524H78.1699V221.887Z" fill="#CCCCCC"/>
<path d="M78.1699 218.066H66.8506V218.703H78.1699V218.066Z" fill="#CCCCCC"/>
<path d="M78.1699 214.246H66.8506V214.882H78.1699V214.246Z" fill="#CCCCCC"/>
<path d="M78.1699 210.425H66.8506V211.062H78.1699V210.425Z" fill="#CCCCCC"/>
<path d="M78.1699 206.604H66.8506V207.241H78.1699V206.604Z" fill="#CCCCCC"/>
<path d="M155.326 233.349H133.684V197.052H155.326C156.507 197.052 157.641 196.583 158.476 195.747C159.312 194.911 159.781 193.777 159.781 192.595C159.781 191.413 159.312 190.279 158.476 189.443C157.641 188.607 156.507 188.137 155.326 188.137H4.47266C3.29097 188.137 2.15768 188.607 1.3221 189.443C0.486518 190.279 0.0170898 191.413 0.0170898 192.595C0.0170898 193.777 0.486518 194.911 1.3221 195.747C2.15768 196.583 3.29097 197.052 4.47266 197.052H22.9315V233.349H4.47266C3.29097 233.349 2.15768 233.818 1.3221 234.654C0.486518 235.49 0.0170898 236.624 0.0170898 237.806C0.0170898 238.989 0.486518 240.122 1.3221 240.958C2.15768 241.794 3.29097 242.264 4.47266 242.264H155.326C155.911 242.264 156.491 242.15 157.032 241.926C157.573 241.702 158.065 241.374 158.479 240.96C158.894 240.546 159.222 240.054 159.446 239.513C159.671 238.972 159.786 238.392 159.786 237.806C159.786 237.221 159.671 236.641 159.446 236.099C159.222 235.558 158.894 235.067 158.479 234.653C158.065 234.239 157.573 233.911 157.032 233.687C156.491 233.463 155.911 233.348 155.326 233.349ZM31.8426 233.349V197.052H124.773V233.349H31.8426Z" fill="#CCCCCC"/>
<path d="M151.821 280.344C140.752 280.344 130.428 279.628 122.753 278.329C113.283 276.727 108.68 274.398 108.68 271.21L108.685 271.11L125.306 144.502L116.985 120.638C116.585 119.515 116.466 118.312 116.636 117.133C116.807 115.953 117.262 114.833 117.963 113.87C118.647 112.891 119.563 112.097 120.628 111.558C121.694 111.019 122.876 110.752 124.069 110.78L179.17 111.355C180.338 111.367 181.487 111.655 182.522 112.195C183.558 112.736 184.451 113.514 185.129 114.465C185.807 115.417 186.251 116.515 186.424 117.67C186.597 118.826 186.494 120.006 186.125 121.115L178.336 144.493L194.959 271.112V271.161C194.961 274.598 189.749 277.038 179.027 278.621C168.493 280.176 156.492 280.344 151.821 280.344Z" fill="white"/>
<path d="M151.821 280.344C140.752 280.344 130.428 279.628 122.753 278.329C113.283 276.727 108.68 274.398 108.68 271.21L108.685 271.11L125.306 144.502L116.985 120.638C116.585 119.515 116.466 118.312 116.636 117.133C116.807 115.953 117.262 114.833 117.963 113.87C118.647 112.891 119.563 112.097 120.628 111.558C121.694 111.019 122.876 110.752 124.069 110.78L179.17 111.355C180.338 111.367 181.487 111.655 182.522 112.195C183.558 112.736 184.451 113.514 185.129 114.465C185.807 115.417 186.251 116.515 186.424 117.67C186.597 118.826 186.494 120.006 186.125 121.115L178.336 144.493L194.959 271.112V271.161C194.961 274.598 189.749 277.038 179.027 278.621C168.493 280.176 156.492 280.344 151.821 280.344ZM123.917 112.293C122.99 112.292 122.076 112.516 121.253 112.944C120.431 113.372 119.724 113.993 119.192 114.753C118.635 115.52 118.272 116.411 118.137 117.35C118.001 118.288 118.096 119.246 118.414 120.139L126.853 144.342L126.83 144.52L110.191 271.26C110.194 272.502 111.858 274.95 123.005 276.835C130.6 278.121 140.834 278.83 151.821 278.83C161.479 278.83 171.567 278.192 178.806 277.123C188.053 275.758 193.381 273.603 193.445 271.207L176.79 144.345L184.689 120.636C184.983 119.754 185.064 118.815 184.926 117.895C184.789 116.976 184.436 116.102 183.896 115.344C183.357 114.587 182.646 113.968 181.822 113.538C180.998 113.108 180.084 112.879 179.155 112.869L124.045 112.295C124.003 112.294 123.96 112.293 123.917 112.293Z" fill="#3F3D56"/>
<path opacity="0.5" d="M183.231 255.72H120.412L130.37 188.353L130.641 186.496L134.79 158.451C135.043 156.74 137.012 158.069 138.404 157.043C147.046 150.676 155.792 150.491 164.613 156.628C165.977 157.577 167.861 156.467 168.115 158.109L172.473 186.239L172.894 188.96L183.231 255.72Z" fill="#3C8DBC"/>
<path d="M175.478 265.153H128.098C126.855 265.153 125.628 264.885 124.498 264.368C123.369 263.851 122.364 263.096 121.553 262.155C120.741 261.214 120.142 260.11 119.796 258.916C119.45 257.723 119.364 256.469 119.546 255.24L133.389 161.59C133.461 161.112 133.657 160.66 133.959 160.282C134.261 159.903 134.658 159.611 135.108 159.436C135.559 159.26 136.049 159.206 136.527 159.28C137.005 159.355 137.455 159.554 137.832 159.858C146.268 166.619 155.463 166.467 165.161 159.408C165.537 159.133 165.978 158.96 166.44 158.906C166.903 158.852 167.372 158.919 167.801 159.1C168.239 159.28 168.623 159.57 168.916 159.943C169.208 160.315 169.399 160.757 169.47 161.226L184.021 255.181C184.211 256.414 184.133 257.674 183.792 258.874C183.45 260.074 182.853 261.185 182.041 262.133C181.23 263.08 180.223 263.84 179.09 264.362C177.957 264.883 176.725 265.153 175.478 265.153Z" fill="#3C8DBC"/>
<path d="M156.413 254.174H129.494V255.688H156.413V254.174Z" fill="white"/>
<path d="M156.413 245.088H129.494V246.602H156.413V245.088Z" fill="white"/>
<path d="M156.413 236.001H129.494V237.516H156.413V236.001Z" fill="white"/>
<path d="M156.413 226.916H129.494V228.43H156.413V226.916Z" fill="white"/>
<path d="M156.413 217.829H129.494V219.343H156.413V217.829Z" fill="white"/>
<path d="M174.164 193.993C172.076 196.067 169.564 197.665 166.801 198.676C164.038 199.688 161.089 200.09 158.156 199.854C154.811 199.551 151.761 198.301 148.824 196.727C145.789 195.099 142.853 193.153 139.492 192.244C136.548 191.449 133.059 191.343 130.531 193.312C130.324 193.472 130.072 193.562 129.81 193.569C129.549 193.575 129.292 193.499 129.078 193.349L129.365 191.381C132.181 189.412 135.602 189.109 138.955 189.783C145.706 191.146 150.83 196.734 157.748 197.537C160.732 197.873 163.752 197.462 166.539 196.341C169.325 195.221 171.789 193.425 173.71 191.116L173.717 191.108L174.164 193.993Z" fill="white"/>
<path d="M330.012 280.384C330.012 280.465 329.996 280.545 329.966 280.62C329.935 280.695 329.889 280.763 329.832 280.82C329.775 280.877 329.707 280.923 329.632 280.954C329.557 280.985 329.477 281 329.396 281H0.673369C0.510062 281 0.353441 280.935 0.237965 280.82C0.12249 280.704 0.0576172 280.547 0.0576172 280.384C0.0576172 280.221 0.12249 280.064 0.237965 279.948C0.353441 279.833 0.510062 279.768 0.673369 279.768H329.396C329.477 279.768 329.557 279.784 329.632 279.814C329.707 279.845 329.775 279.891 329.832 279.948C329.889 280.005 329.935 280.073 329.966 280.148C329.996 280.223 330.012 280.303 330.012 280.384Z" fill="#CCCCCC"/>
<path d="M261.712 47.2652L279.405 45.7329L295.991 53.3182L305.305 182.215L268.754 165.304L253.072 169.645L261.712 47.2652Z" fill="white"/>
<path d="M174.394 47.1064C176.108 47.1064 177.498 45.7159 177.498 44.0005C177.498 42.2851 176.108 40.8945 174.394 40.8945C172.679 40.8945 171.289 42.2851 171.289 44.0005C171.289 45.7159 172.679 47.1064 174.394 47.1064Z" fill="#3C8DBC"/>
<path d="M169.219 84.8955C170.934 84.8955 172.324 83.5049 172.324 81.7895C172.324 80.0742 170.934 78.6836 169.219 78.6836C167.504 78.6836 166.114 80.0742 166.114 81.7895C166.114 83.5049 167.504 84.8955 169.219 84.8955Z" fill="#3C8DBC"/>
<path d="M152.661 107.155C154.376 107.155 155.766 105.764 155.766 104.049C155.766 102.333 154.376 100.943 152.661 100.943C150.947 100.943 149.557 102.333 149.557 104.049C149.557 105.764 150.947 107.155 152.661 107.155Z" fill="#3C8DBC"/>
<path d="M230.166 131.22V97.8774C230.167 97.2026 230.435 96.5556 230.912 96.0784C231.389 95.6012 232.036 95.3328 232.71 95.332H257.88C258.555 95.3328 259.202 95.6012 259.678 96.0784C260.155 96.5556 260.424 97.2026 260.425 97.8774V131.22C260.424 131.894 260.155 132.541 259.678 133.019C259.202 133.496 258.555 133.764 257.88 133.765H232.71C232.036 133.764 231.389 133.496 230.912 133.019C230.435 132.541 230.167 131.894 230.166 131.22Z" fill="#E6E6E6"/>
<path d="M232.097 121.149V99.7134C232.097 99.0814 232.349 98.4755 232.795 98.0286C233.242 97.5817 233.848 97.3303 234.479 97.3296H256.111C256.743 97.3303 257.348 97.5817 257.795 98.0286C258.242 98.4755 258.493 99.0814 258.494 99.7134V129.383C258.493 130.015 258.242 130.621 257.795 131.068C257.348 131.515 256.743 131.767 256.111 131.767H242.711C239.897 131.764 237.199 130.644 235.209 128.654C233.219 126.663 232.1 123.964 232.097 121.149Z" fill="white"/>
<path d="M235.599 105.694C235.6 105.077 235.845 104.484 236.282 104.048C236.718 103.611 237.31 103.365 237.928 103.365H252.933C253.551 103.365 254.143 103.61 254.58 104.047C255.016 104.484 255.262 105.076 255.262 105.694C255.262 106.312 255.016 106.905 254.58 107.341C254.143 107.778 253.551 108.024 252.933 108.024H237.928C237.31 108.023 236.718 107.777 236.282 107.341C235.845 106.904 235.6 106.312 235.599 105.694Z" fill="#E6E6E6"/>
<path d="M235.599 112.942C235.6 112.324 235.845 111.732 236.282 111.295C236.718 110.859 237.31 110.613 237.928 110.612H252.933C253.551 110.612 254.143 110.858 254.58 111.295C255.016 111.731 255.262 112.324 255.262 112.942C255.262 113.56 255.016 114.152 254.58 114.589C254.143 115.026 253.551 115.271 252.933 115.271H237.928C237.31 115.271 236.718 115.025 236.282 114.588C235.845 114.151 235.6 113.559 235.599 112.942Z" fill="#E6E6E6"/>
<path d="M235.599 120.189C235.6 119.571 235.845 118.979 236.282 118.542C236.718 118.106 237.31 117.86 237.928 117.859H252.933C253.551 117.859 254.143 118.105 254.58 118.542C255.016 118.979 255.262 119.571 255.262 120.189C255.262 120.807 255.016 121.399 254.58 121.836C254.143 122.273 253.551 122.518 252.933 122.518H237.928C237.31 122.518 236.718 122.272 236.282 121.835C235.845 121.399 235.6 120.806 235.599 120.189Z" fill="#E6E6E6"/>
<path d="M250.67 136.972C251.379 136.679 252.014 136.234 252.532 135.669C253.05 135.104 253.438 134.432 253.668 133.701C253.899 132.969 253.966 132.196 253.865 131.436C253.765 130.676 253.499 129.947 253.086 129.301L271.336 112.715L277.738 87.9389L266.376 86.9932L262.903 106.435L245.5 127.865C244.461 128.63 243.738 129.75 243.47 131.013C243.201 132.276 243.404 133.593 244.042 134.716C244.679 135.838 245.706 136.688 246.927 137.104C248.149 137.52 249.481 137.473 250.67 136.972Z" fill="#FFB6B6"/>
<path d="M279.489 65.5637C279.489 65.5637 282.259 65.6048 281.011 71.3413C280.013 75.9338 276.224 101.778 273.2 107.56C273.892 108.157 274.366 108.968 274.546 109.865C274.727 110.761 274.604 111.693 274.198 112.512L261.559 107.606C260.457 104.738 262.304 103.846 263.483 103.589L263.252 94.5914L265.064 71.657L277.488 65.4985L279.489 65.5637Z" fill="white"/>
<path d="M283.212 23.1062C282.622 27.408 280.35 31.2996 276.894 33.926C273.438 36.5525 269.081 37.6989 264.78 37.1133C260.48 36.5278 256.587 34.2582 253.959 30.8033C251.33 27.3483 250.18 22.9906 250.761 18.6877L250.792 18.4552C251.471 14.2101 253.79 10.4019 257.25 7.85212C260.71 5.30236 265.033 4.21536 269.287 4.82562C273.54 5.43588 277.384 7.69448 279.988 11.1142C282.592 14.5339 283.748 18.8407 283.207 23.1055L283.212 23.1062Z" fill="#FFB8B8"/>
<path d="M279.044 31.5443C279.885 29.8353 280.749 28.0006 280.513 26.1106C280.276 24.2205 278.424 22.4139 276.604 22.9756C275.516 23.3115 274.694 24.3863 273.557 24.4413C271.992 24.5169 271.095 22.7254 270.608 21.2359L268.625 15.1694C266.72 16.6545 264.511 17.7006 262.155 18.2331C259.8 18.7656 257.356 18.7714 254.998 18.25C253.156 17.8287 251.296 17.0074 250.215 15.4569C249.135 13.9064 249.141 11.5013 250.623 10.3289C251.35 9.75397 252.317 9.53555 253.011 8.92211C253.442 8.54156 253.739 8.0324 253.858 7.46997C253.977 6.90755 253.911 6.32174 253.672 5.79924C253.432 5.27674 253.031 4.8453 252.527 4.56878C252.023 4.29226 251.444 4.18534 250.874 4.26385L255.869 3.63937L254.381 0.946841C255.453 1.79245 256.945 1.90618 258.289 1.66413C259.633 1.42208 260.898 0.868583 262.213 0.499466C268.523 -1.27255 275.858 1.80849 279.012 7.55658C280.241 7.14601 281.565 7.11873 282.81 7.47834C284.055 7.83795 285.161 8.56748 285.983 9.57028C287.32 11.2679 287.683 13.5334 287.735 15.6941C287.832 19.9543 286.904 24.1755 285.028 28.0013C284.49 29.2165 283.717 30.3134 282.754 31.2287C282.269 31.6825 281.69 32.0247 281.059 32.2312C280.428 32.4377 279.759 32.5035 279.1 32.4241" fill="#2F2E41"/>
</g>
<defs>
<clipPath id="clip0_2411_3573">
<rect width="329.995" height="281" fill="white" transform="translate(0.0170898)"/>
</clipPath>
</defs>
</svg>
