<svg width="270" height="281" viewBox="0 0 270 281" fill="none" xmlns="http://www.w3.org/2000/svg">
<g clip-path="url(#clip0_2411_3383)">
<path d="M255.438 261.844C255.438 272.423 198.372 281 127.976 281C57.5804 281 0.514648 272.423 0.514648 261.844C0.514648 254.355 29.1195 247.866 70.8076 244.719C87.9985 243.417 107.422 242.688 127.976 242.688C136.426 242.688 144.682 242.812 152.667 243.046C211.246 244.777 255.438 252.534 255.438 261.844Z" fill="#3F3D56"/>
<path opacity="0.1" d="M111.529 265.758C138.552 265.758 160.458 263.083 160.458 259.784C160.458 256.485 138.552 253.811 111.529 253.811C84.5068 253.811 62.6006 256.485 62.6006 259.784C62.6006 263.083 84.5068 265.758 111.529 265.758Z" fill="black"/>
<path d="M111.324 264.11C136.871 264.11 157.58 241.977 157.58 214.675C157.58 187.373 136.871 165.241 111.324 165.241C85.7775 165.241 65.0679 187.373 65.0679 214.675C65.0679 241.977 85.7775 264.11 111.324 264.11Z" fill="#3F3D56"/>
<path d="M125.92 243.924H97.1387V270.289H125.92V243.924Z" fill="#3C8DBC"/>
<path d="M163.542 250.31L161.897 259.373L172.588 261.02L179.578 256.901L179.166 250.31H163.542Z" fill="#575A89"/>
<path d="M109.679 80.1718C109.679 80.1718 108.857 89.6467 106.801 90.0587C104.745 90.4706 111.324 106.949 111.324 106.949H121.192L129.004 104.889L125.304 95.826C125.304 95.826 120.37 89.2348 124.07 83.8794C127.771 78.5239 109.679 80.1718 109.679 80.1718Z" fill="#A0616A"/>
<path opacity="0.1" d="M109.679 80.1718C109.679 80.1718 108.857 89.6467 106.801 90.0587C104.745 90.4706 111.324 106.949 111.324 106.949H121.192L129.004 104.889L125.304 95.826C125.304 95.826 120.37 89.2348 124.07 83.8794C127.771 78.5239 109.679 80.1718 109.679 80.1718Z" fill="black"/>
<path d="M89.1212 152.676C89.1212 152.676 78.4309 173.274 87.0653 177.393C95.6998 181.513 97.7557 181.101 97.7557 182.337C97.7557 183.573 96.111 183.161 96.9333 185.221C97.7557 187.28 95.2887 195.519 97.7557 200.463C100.223 205.406 99.4003 209.114 99.4003 209.114C99.4003 209.114 99.4003 209.526 100.223 211.174C101.045 212.822 101.456 214.057 101.045 214.881C100.634 215.705 98.1668 221.061 100.634 222.297C103.101 223.532 115.847 224.356 117.08 222.297C118.314 220.237 115.847 219.001 117.08 217.765C118.314 216.529 119.136 216.117 118.314 215.293C117.492 214.469 116.669 204.17 116.669 204.17C116.669 204.17 118.725 192.224 117.903 190.576C117.08 188.928 115.847 187.28 116.669 186.044C117.492 184.809 118.314 185.221 118.725 183.573C119.136 181.925 119.959 178.217 119.959 178.217L124.481 177.805L135.172 179.865C135.172 179.865 147.096 193.048 160.253 197.167C160.253 197.167 163.953 200.875 165.187 200.875C166.42 200.875 166.42 200.875 166.009 201.699C165.598 202.523 164.365 202.523 165.187 203.347C166.009 204.17 167.243 202.935 166.42 204.17C165.598 205.406 164.776 205.406 165.598 206.23C166.42 207.054 165.187 211.586 165.187 211.998C165.187 212.41 161.486 251.133 162.72 251.957C163.953 252.781 181.222 255.253 182.456 251.957C183.689 248.662 181.634 244.542 181.634 244.542C181.634 244.542 187.801 195.107 186.156 191.812C184.512 188.516 178.755 173.686 147.918 164.211C147.918 164.211 139.283 162.563 139.283 161.327C139.283 160.091 138.461 152.264 136.816 151.852C135.172 151.44 125.715 151.028 125.715 151.028L113.791 154.736L97.3445 151.852L89.1212 152.676Z" fill="#2F2E41"/>
<path d="M103.512 221.884L101.456 229.299C101.456 229.299 99.8112 241.246 101.867 244.13C103.482 246.395 106.365 249.168 111.712 249.655C113.211 249.793 114.711 249.414 115.966 248.581C117.22 247.748 118.153 246.511 118.611 245.075C118.672 244.903 118.711 244.724 118.725 244.542C118.725 243.718 117.491 233.831 117.491 233.831L115.436 223.532L115.024 220.648L103.512 221.884Z" fill="#2F2E41"/>
<path d="M163.542 257.313C163.542 257.313 161.486 255.253 161.075 257.313C160.664 259.372 159.019 268.023 161.898 268.435C164.776 268.847 192.324 272.967 195.202 271.319C198.08 269.671 203.425 267.199 200.136 265.964C196.847 264.728 187.39 261.02 187.39 261.02C187.39 261.02 182.045 254.017 181.222 253.605C180.4 253.193 175.877 254.017 173.821 255.665C171.766 257.313 163.542 257.313 163.542 257.313Z" fill="#2F2E41"/>
<path d="M119.547 88.8229C126.587 88.8229 132.294 83.1053 132.294 76.0523C132.294 68.9993 126.587 63.2817 119.547 63.2817C112.508 63.2817 106.801 68.9993 106.801 76.0523C106.801 83.1053 112.508 88.8229 119.547 88.8229Z" fill="#A0616A"/>
<path d="M118.314 104.89L113.38 99.5341L107.91 88.8233C107.91 88.8233 103.923 87.5874 103.1 89.6472C102.278 91.7069 87.4761 98.2982 87.4761 98.2982C87.4761 98.2982 91.1766 132.902 89.532 136.198C87.8873 139.494 85.0091 152.676 87.4761 153.912C89.9431 155.148 101.456 153.912 105.156 155.56C108.857 157.208 119.547 157.208 122.425 155.148C125.303 153.088 126.126 151.44 129.004 152.676C131.454 153.728 137.182 117.759 138.831 107.039C138.97 106.139 138.855 105.218 138.498 104.38C138.142 103.542 137.558 102.821 136.813 102.298C133.124 99.7052 126.48 95.2373 125.303 95.8265C123.659 96.6504 118.314 104.89 118.314 104.89Z" fill="#575A89"/>
<path d="M135.994 103.241C136.959 103.483 137.828 104.015 138.483 104.766C139.138 105.517 139.548 106.45 139.657 107.441L142.984 137.433C142.984 137.433 134.76 155.148 130.649 143.201C126.537 131.254 135.994 103.241 135.994 103.241Z" fill="#575A89"/>
<path d="M135.172 140.317L144.217 137.846C144.217 137.846 145.862 149.38 147.507 149.38C149.151 149.38 141.75 155.972 138.05 155.148C134.349 154.324 129.004 151.44 128.593 149.38C128.182 147.321 132.293 138.67 132.293 138.67L135.172 140.317Z" fill="#575A89"/>
<path d="M109.925 81.5617C110.792 79.6469 110.642 77.4134 111.358 75.4373C111.742 74.3792 112.364 73.4243 113.177 72.6472C113.99 71.8701 114.972 71.2918 116.045 70.9575C117.118 70.6233 118.253 70.5421 119.363 70.7203C120.472 70.8985 121.525 71.3313 122.44 71.9849C123.362 72.6433 124.286 73.5685 125.411 73.4428C126.623 73.3074 127.703 71.9532 128.817 72.4495C130.052 72.9996 129.719 75.2165 130.969 75.7285C131.628 75.9981 132.406 75.5831 132.786 74.9805C133.118 74.3474 133.299 73.6457 133.314 72.9306C133.487 71.1736 133.643 69.314 132.882 67.7214C132.562 67.1816 132.284 66.6184 132.048 66.0366C131.915 65.4932 131.862 64.9334 131.89 64.3746C131.883 62.3094 131.732 60.1553 130.695 58.3707C129.544 56.3904 127.416 55.1241 125.196 54.5715C122.977 54.019 120.651 54.1037 118.372 54.297C114.604 54.6166 110.675 55.3016 107.707 57.6483C107.303 57.9436 106.956 58.3091 106.682 58.7274C106.421 59.2243 106.237 59.7579 106.136 60.3099C105.494 62.9284 104.532 65.4573 103.271 67.8393C102.664 68.8491 102.169 69.9217 101.792 71.0383C101.478 72.173 101.499 73.4661 102.158 74.4414C102.694 75.2354 103.552 75.6586 104.226 76.3077C104.893 76.951 105.206 78.188 105.945 78.6751C106.591 79.1003 107.364 78.8002 108.023 79.2508C108.868 79.8294 108.93 81.0981 109.925 81.5617Z" fill="#2F2E41"/>
<path d="M120.37 111.068L121.603 108.597C121.603 108.597 139.694 113.952 143.395 118.896C143.395 118.896 152.441 113.128 157.375 113.952L162.309 114.776L147.095 128.371L127.771 126.723L120.37 111.068Z" fill="#F2F2F2"/>
<path d="M119.547 108.597L102.689 132.078L126.948 144.025C126.948 144.025 129.216 145.261 130.96 144.025L147.095 136.61L162.309 114.776L147.095 122.603C147.095 122.603 145.451 119.308 142.161 120.955L119.547 108.597Z" fill="#3C8DBC"/>
<path d="M145.451 150.204L148.74 141.553C148.74 141.553 156.141 132.078 152.03 127.547C147.918 123.015 143.395 140.729 143.395 140.729L145.451 150.204Z" fill="#A0616A"/>
<path d="M107.499 148.824L114.676 142.994C114.676 142.994 125.823 138.518 124.536 132.531C123.248 126.545 110.465 139.594 110.465 139.594L107.499 148.824Z" fill="#A0616A"/>
<path opacity="0.1" d="M89.7376 107.155H89.3264C89.3264 107.155 82.9533 99.5339 81.7198 109.833C80.4863 120.132 76.3747 154.324 87.065 155.56C97.7553 156.796 105.362 150.41 105.362 150.41C105.362 150.41 113.174 138.464 110.296 138.464C108.903 138.464 105.116 137.837 101.661 138.052C97.9762 138.281 94.6649 139.321 94.8772 138.258C95.2883 136.198 101.25 110.039 89.7376 107.155Z" fill="black"/>
<path d="M89.121 99.1218L87.4763 98.2979C87.4763 98.2979 80.8977 99.5337 79.6642 109.833C78.4307 120.131 74.319 154.324 85.0093 155.56C95.6997 156.795 110.09 153.912 110.09 153.912C110.09 153.912 112.969 138.257 110.09 138.257C107.212 138.257 92.4103 140.317 92.8215 138.257C93.2327 136.198 100.634 102.005 89.121 99.1218Z" fill="#575A89"/>
<path d="M139.489 145.467L144.023 138.504L146.89 149.998L139.489 153.294V145.467Z" fill="#575A89"/>
<path d="M46.3486 46.1855C52.4797 46.1855 57.4501 41.2057 57.4501 35.0627C57.4501 28.9198 52.4797 23.9399 46.3486 23.9399C40.2174 23.9399 35.2471 28.9198 35.2471 35.0627C35.2471 41.2057 40.2174 46.1855 46.3486 46.1855Z" fill="#3C8DBC" fill-opacity="0.3"/>
<path d="M59.5061 117.866H33.1914V144.231H59.5061V117.866Z" fill="#3C8DBC" fill-opacity="0.3"/>
<path d="M153.469 0L160.129 11.5582L166.789 23.1164H153.469H140.148L146.808 11.5582L153.469 0Z" fill="#3C8DBC" fill-opacity="0.3"/>
<path d="M269.514 69.3027C269.355 74.2339 268.157 78.1864 265.919 81.1602C263.68 84.1344 261.021 85.6216 257.942 85.6218C255.433 85.6218 253.234 84.1665 251.345 81.2557C249.456 78.345 248.511 73.8676 248.512 67.8235C248.512 66.4875 248.543 65.215 248.607 64.0062C248.67 62.7976 248.75 61.6524 248.845 60.5706L250.512 44.8718H239.51C237.606 64.7219 236.042 76.5318 234.819 80.3014C233.597 84.0709 231.525 85.9558 228.604 85.9559C227.286 85.9234 226.028 85.3954 225.08 84.4767C224.53 83.9887 224.096 83.3847 223.808 82.708C223.519 82.0313 223.385 81.299 223.413 80.5638C223.413 79.1011 224.564 77.0572 226.866 74.4323C229.168 71.8078 230.446 69.414 230.7 67.2509L233.557 44.8718H228.938C227.635 44.8796 226.354 45.1986 225.199 45.8022C224.136 46.2912 223.212 47.0373 222.508 47.9733L220.46 51.0272H218.793C220.349 46.1922 222.262 42.5578 224.532 40.124C226.802 37.6904 229.413 36.4736 232.367 36.4736H268.753V44.8718H256.465C256.084 48.6891 255.79 52.5064 255.584 56.3237C255.377 60.1411 255.274 63.9743 255.275 67.8235C255.275 70.4323 255.878 72.5477 257.084 74.1698C258.291 75.7922 259.799 76.6034 261.609 76.6033C262.72 76.6033 263.887 76.15 265.109 75.2433C265.69 74.8353 266.175 74.3064 266.533 73.6929C266.891 73.0793 267.112 72.3956 267.181 71.6886C267.276 70.9892 267.348 70.4404 267.395 70.0423C267.443 69.6449 267.467 69.3984 267.467 69.3027L269.514 69.3027Z" fill="#3C8DBC"/>
<path opacity="0.1" d="M269.514 69.3027C269.355 74.2339 268.157 78.1864 265.919 81.1602C263.68 84.1344 261.021 85.6216 257.942 85.6218C255.433 85.6218 253.234 84.1665 251.345 81.2557C249.456 78.345 248.511 73.8676 248.512 67.8235C248.512 66.4875 248.543 65.215 248.607 64.0062C248.67 62.7976 248.75 61.6524 248.845 60.5706L250.512 44.8718H239.51C237.606 64.7219 236.042 76.5318 234.819 80.3014C233.597 84.0709 231.525 85.9558 228.604 85.9559C227.286 85.9234 226.028 85.3954 225.08 84.4767C224.53 83.9887 224.096 83.3847 223.808 82.708C223.519 82.0313 223.385 81.299 223.413 80.5638C223.413 79.1011 224.564 77.0572 226.866 74.4323C229.168 71.8078 230.446 69.414 230.7 67.2509L233.557 44.8718H228.938C227.635 44.8796 226.354 45.1986 225.199 45.8022C224.136 46.2912 223.212 47.0373 222.508 47.9733L220.46 51.0272H218.793C220.349 46.1922 222.262 42.5578 224.532 40.124C226.802 37.6904 229.413 36.4736 232.367 36.4736H268.753V44.8718H256.465C256.084 48.6891 255.79 52.5064 255.584 56.3237C255.377 60.1411 255.274 63.9743 255.275 67.8235C255.275 70.4323 255.878 72.5477 257.084 74.1698C258.291 75.7922 259.799 76.6034 261.609 76.6033C262.72 76.6033 263.887 76.15 265.109 75.2433C265.69 74.8353 266.175 74.3064 266.533 73.6929C266.891 73.0793 267.112 72.3956 267.181 71.6886C267.276 70.9892 267.348 70.4404 267.395 70.0423C267.443 69.6449 267.467 69.3984 267.467 69.3027L269.514 69.3027Z" fill="black"/>
<path d="M269.514 67.812C269.355 72.7432 268.157 76.6957 265.919 79.6695C263.68 82.6436 261.021 84.1308 257.942 84.1311C255.433 84.1311 253.234 82.6757 251.345 79.765C249.456 76.8543 248.511 72.3769 248.512 66.3328C248.512 64.9967 248.543 63.7243 248.607 62.5154C248.67 61.3069 248.75 60.1617 248.845 59.0799L250.512 43.3811H239.51C237.606 63.2312 236.042 75.0411 234.819 78.8107C233.597 82.5802 231.525 84.465 228.604 84.4652C227.286 84.4327 226.028 83.9047 225.08 82.986C224.53 82.498 224.096 81.8939 223.808 81.2173C223.519 80.5406 223.385 79.8082 223.413 79.0731C223.413 77.6104 224.564 75.5665 226.866 72.9415C229.168 70.3171 230.446 67.9233 230.7 65.7602L233.557 43.3811H228.938C227.635 43.3889 226.354 43.7078 225.199 44.3115C224.136 44.8005 223.212 45.5466 222.508 46.4826L220.46 49.5365H218.793C220.349 44.7014 222.262 41.067 224.532 38.6332C226.802 36.1997 229.413 34.9829 232.367 34.9829H268.753V43.3811H256.465C256.084 47.1984 255.79 51.0157 255.584 54.833C255.377 58.6504 255.274 62.4836 255.275 66.3328C255.275 68.9416 255.878 71.057 257.084 72.6791C258.291 74.3015 259.799 75.1127 261.609 75.1126C262.72 75.1126 263.887 74.6593 265.109 73.7526C265.69 73.3446 266.175 72.8157 266.533 72.2022C266.891 71.5886 267.112 70.9049 267.181 70.1978C267.276 69.4984 267.348 68.9497 267.395 68.5516C267.443 68.1542 267.467 67.9077 267.467 67.812H269.514Z" fill="#3C8DBC"/>
</g>
<defs>
<clipPath id="clip0_2411_3383">
<rect width="269" height="281" fill="white" transform="translate(0.514648)"/>
</clipPath>
</defs>
</svg>
